<?xml version="1.0" encoding="UTF-8"?>
<svg id="a" data-name="Layer 1" xmlns="http://www.w3.org/2000/svg" viewBox="0 0 2469.0815 837.3074">
	<path d="m663.328,698.3527l-24.5746,138.9548c-185.5396,0-254.4619-121.8752-331.7951-303.1396l95.8447-54.3869h-183.4757l-63.2289,357.5265H0L148.0792,0h156.098l-60.2753,340.8269h288.3515l24.5742-138.9551h156.2801l-23.5186,132.9832c-14.1551,80.0404-90.7085,144.9259-170.9876,144.9259h-65.7698c50.1545,111.8091,73.3906,206.4555,210.4963,218.5718Zm788.6489-300.3199h103.0613l-52.0561,294.3487c-14.1554,80.04-90.7089,144.9259-170.988,144.9259h-646.1205l112.3226-635.1278h317.6905l17.1929-97.2189h156.0987l-17.1936,97.2189h316.6914s-18.8665,112.327-136.6993,195.8532Zm-77.6712,139.2909h-479.281l-28.4783,161.0289h479.2814l28.4779-161.0289Zm60.7708-196.4968h-505.3012l-10.1176,57.2059h505.3019l10.1168-57.2059Zm717.3898-235.8662h-156.0976l-17.0877,96.6168h-333.7015l-59.3775,335.7462h667.4041l-28.4783,161.0289h-511.3058l8.8272-49.9117h-156.0987l-33.048,186.8714h678.1448c80.2791,0,156.8325-64.8863,170.988-144.927l51.7033-292.3526h-667.4041l10.1168-57.2059h667.4041l24.6261-139.2494h-333.7019l17.0866-96.6168ZM748.8091,0h-156.2801l-24.5742,138.954h156.2797L748.8091,0Z"
	      fill="#1B1BCC" stroke-width="0"/>
</svg>
